<mxfile host="drawio-plugin" modified="2021-10-25T19:55:41.279Z" agent="5.0 (Windows NT 6.2; Win64; x64) AppleWebKit/537.36 (KHTML, like Gecko) Chrome/89.0.4389.114 Safari/537.36" etag="bbyDuIPbo_P2LortGf0O" version="14.7.4" type="embed"><diagram id="pK6moic8tZPPqWVi7ZrQ" name="Page-1"><mxGraphModel dx="947" dy="425" grid="1" gridSize="10" guides="1" tooltips="1" connect="1" arrows="1" fold="1" page="1" pageScale="1" pageWidth="850" pageHeight="1100" math="0" shadow="0"><root><mxCell id="0"/><mxCell id="1" parent="0"/><mxCell id="2" value="routing" style="whiteSpace=wrap;html=1;fillColor=#fff2cc;strokeColor=#d6b656;" vertex="1" parent="1"><mxGeometry x="30" y="90" width="120" height="60" as="geometry"/></mxCell><mxCell id="6" style="edgeStyle=orthogonalEdgeStyle;rounded=0;orthogonalLoop=1;jettySize=auto;html=1;entryX=0;entryY=0.5;entryDx=0;entryDy=0;" edge="1" parent="1" source="3" target="4"><mxGeometry relative="1" as="geometry"/></mxCell><mxCell id="7" style="edgeStyle=orthogonalEdgeStyle;rounded=0;orthogonalLoop=1;jettySize=auto;html=1;entryX=0;entryY=0.75;entryDx=0;entryDy=0;" edge="1" parent="1" source="3" target="5"><mxGeometry relative="1" as="geometry"><mxPoint x="190" y="370" as="targetPoint"/></mxGeometry></mxCell><mxCell id="3" value="homepage" style="whiteSpace=wrap;html=1;fillColor=#fff2cc;strokeColor=#d6b656;" vertex="1" parent="1"><mxGeometry x="50" y="200" width="120" height="60" as="geometry"/></mxCell><mxCell id="10" style="edgeStyle=orthogonalEdgeStyle;rounded=0;orthogonalLoop=1;jettySize=auto;html=1;entryX=0;entryY=0.5;entryDx=0;entryDy=0;" edge="1" parent="1" source="4" target="9"><mxGeometry relative="1" as="geometry"/></mxCell><mxCell id="4" value="login" style="whiteSpace=wrap;html=1;" vertex="1" parent="1"><mxGeometry x="290" y="200" width="120" height="60" as="geometry"/></mxCell><mxCell id="8" style="edgeStyle=orthogonalEdgeStyle;rounded=0;orthogonalLoop=1;jettySize=auto;html=1;entryX=0.667;entryY=1;entryDx=0;entryDy=0;entryPerimeter=0;" edge="1" parent="1" source="5" target="4"><mxGeometry relative="1" as="geometry"><mxPoint x="440" y="290" as="targetPoint"/></mxGeometry></mxCell><mxCell id="5" value="register" style="whiteSpace=wrap;html=1;" vertex="1" parent="1"><mxGeometry x="220" y="330" width="120" height="60" as="geometry"/></mxCell><mxCell id="12" style="edgeStyle=orthogonalEdgeStyle;rounded=0;orthogonalLoop=1;jettySize=auto;html=1;exitX=0.5;exitY=0;exitDx=0;exitDy=0;entryX=0;entryY=0.25;entryDx=0;entryDy=0;" edge="1" parent="1" source="9" target="11"><mxGeometry relative="1" as="geometry"/></mxCell><mxCell id="14" style="edgeStyle=orthogonalEdgeStyle;rounded=0;orthogonalLoop=1;jettySize=auto;html=1;exitX=1;exitY=0.5;exitDx=0;exitDy=0;entryX=0;entryY=0.25;entryDx=0;entryDy=0;" edge="1" parent="1" source="9" target="13"><mxGeometry relative="1" as="geometry"/></mxCell><mxCell id="16" style="edgeStyle=orthogonalEdgeStyle;rounded=0;orthogonalLoop=1;jettySize=auto;html=1;exitX=1;exitY=0.5;exitDx=0;exitDy=0;entryX=0;entryY=0.75;entryDx=0;entryDy=0;" edge="1" parent="1" source="9" target="15"><mxGeometry relative="1" as="geometry"/></mxCell><mxCell id="18" style="edgeStyle=orthogonalEdgeStyle;rounded=0;orthogonalLoop=1;jettySize=auto;html=1;exitX=1;exitY=0.5;exitDx=0;exitDy=0;entryX=0;entryY=0.75;entryDx=0;entryDy=0;" edge="1" parent="1" source="9" target="17"><mxGeometry relative="1" as="geometry"/></mxCell><mxCell id="21" style="edgeStyle=orthogonalEdgeStyle;rounded=0;orthogonalLoop=1;jettySize=auto;html=1;entryX=0;entryY=0.75;entryDx=0;entryDy=0;" edge="1" parent="1" source="9" target="20"><mxGeometry relative="1" as="geometry"/></mxCell><mxCell id="9" value="after.login page&amp;nbsp;" style="whiteSpace=wrap;html=1;" vertex="1" parent="1"><mxGeometry x="450" y="210" width="120" height="40" as="geometry"/></mxCell><mxCell id="11" value="ideal weight" style="whiteSpace=wrap;html=1;" vertex="1" parent="1"><mxGeometry x="610" y="100" width="120" height="40" as="geometry"/></mxCell><mxCell id="13" value="make your own meals" style="whiteSpace=wrap;html=1;" vertex="1" parent="1"><mxGeometry x="620" y="170" width="120" height="40" as="geometry"/></mxCell><mxCell id="15" value="weekly menus" style="whiteSpace=wrap;html=1;" vertex="1" parent="1"><mxGeometry x="620" y="240" width="120" height="40" as="geometry"/></mxCell><mxCell id="17" value="calorie calculator" style="whiteSpace=wrap;html=1;" vertex="1" parent="1"><mxGeometry x="620" y="320" width="120" height="40" as="geometry"/></mxCell><mxCell id="23" style="edgeStyle=orthogonalEdgeStyle;rounded=0;orthogonalLoop=1;jettySize=auto;html=1;entryX=0;entryY=0.5;entryDx=0;entryDy=0;" edge="1" parent="1" source="20" target="22"><mxGeometry relative="1" as="geometry"/></mxCell><mxCell id="20" value="about us" style="whiteSpace=wrap;html=1;" vertex="1" parent="1"><mxGeometry x="540" y="420" width="120" height="30" as="geometry"/></mxCell><mxCell id="22" value="trainers" style="whiteSpace=wrap;html=1;" vertex="1" parent="1"><mxGeometry x="730" y="410" width="120" height="40" as="geometry"/></mxCell></root></mxGraphModel></diagram></mxfile>